#!OML:ASF E:\emotionWalksFemale\Project 1\Capture day 1\Session 1\Female1.ASF
:FULLY-SPECIFIED
:DEGREES
177
root 8.78681 15.154 42.2119 179.923 -9.98431 -178.113
lowerback 7.09567 2.86841 2.92254
upperback -4.7715 4.09438 0.133324
thorax -8.839 1.7784 -2.08078
lowerneck -6.21614 13.138 5.84516
upperneck 10.2037 17.1607 -1.26678
head 4.67795 8.56315 -0.204475
rclavicle -2.29348e-014 -3.77691e-015
rhumerus -47.089 14.5796 -97.4677
rradius 33.8629
rwrist 19.5109
rhand -9.9122 -56.1814
rfingers 7.12502
rthumb -163.932 454.465
lclavicle -2.29348e-014 -3.77691e-015
lhumerus -41.1046 -7.72081 90.7443
lradius 34.6459
lwrist -20.3298
lhand -5.20949 -29.8051
lfingers 7.12502
lthumb 20.5921 -0.877377
rfemur -4.86925 18.6615 29.3333
rtibia 25.3733
rfoot -27.9 -37.4055
rtoes 25.7398
lfemur -12.65 -25.4937 -20.9754
ltibia 32.1053
lfoot -24.2397 13.6582
ltoes -27.9762
178
root 8.7888 15.1534 42.208 179.796 -10.3229 -178.067
lowerback 7.15679 2.7215 2.85911
upperback -4.74887 3.89776 0.191799
thorax -8.86871 1.68852 -1.95935
lowerneck -6.84485 12.3755 5.60708
upperneck 10.9042 16.12 -1.21979
head 4.9401 8.03286 -0.171007
rclavicle -9.97029e-016 -2.5842e-015
rhumerus -46.9146 14.7869 -97.4644
rradius 33.5832
rwrist 20.141
rhand -9.75625 -55.9403
rfingers 7.12502
rthumb -163.782 454.718
lclavicle -9.97029e-016 -2.5842e-015
lhumerus -41.0371 -7.41994 90.5704
lradius 34.3738
lwrist -20.1669
lhand -2.24392 -29.3949
lfingers 7.12502
lthumb 23.4394 -0.802535
rfemur -4.63425 18.7411 29.5143
rtibia 25.3535
rfoot -28.4734 -37.6354
rtoes 26.2686
lfemur -12.5571 -25.4843 -20.9556
ltibia 32.1178
lfoot -24.2114 13.5422
ltoes -28.8559
179
root 8.78683 15.1566 42.2064 179.899 -10.1186 -178.018
lowerback 7.04403 2.757 2.83721
upperback -4.81395 3.93719 0.214483
thorax -8.87435 1.70709 -1.92399
lowerneck -7.14181 11.5571 5.2867
upperneck 11.2198 15.0238 -1.13947
head 5.02081 7.48133 -0.161793
rclavicle 5.34669e-014 6.90777e-015
rhumerus -46.7399 14.9493 -97.4792
rradius 33.2182
rwrist 20.8503
rhand -9.67561 -55.5105
rfingers 7.12502
rthumb -163.704 455.154
lclavicle 5.34669e-014 6.90777e-015
lhumerus -41.1035 -7.27195 90.457
lradius 33.952
lwrist -20.7535
lhand -2.46425 -29.1082
lfingers 7.12502
lthumb 23.2281 -0.489027
rfemur -4.7704 18.6596 29.4795
rtibia 25.3229
rfoot -28.1772 -37.5268
rtoes 25.6442
lfemur -12.6406 -25.4933 -20.8791
ltibia 32.1098
lfoot -24.2489 13.7179
ltoes -28.5102
180
root 8.78623 15.1523 42.2035 179.678 -10.1917 -177.976
lowerback 7.22649 2.71294 2.83613
upperback -4.80124 3.88774 0.223891
thorax -8.97124 1.682 -1.91685
lowerneck -7.27743 10.6963 4.5976
upperneck 11.407 13.8695 -0.65281
head 4.98167 6.91428 -0.000151592
rclavicle -2.20403e-014 6.06293e-015
rhumerus -46.5617 15.0784 -97.5175
rradius 32.8148
rwrist 21.4582
rhand -9.32602 -55.586
rfingers 7.12502
rthumb -163.367 455.107
lclavicle -2.20403e-014 6.06293e-015
lhumerus -41.1774 -6.89412 90.1534
lradius 33.6059
lwrist -21.3944
lhand -2.69304 -29.2771
lfingers 7.12502
lthumb 23.0085 -0.630441
rfemur -4.48779 18.5812 29.6233
rtibia 25.2853
rfoot -28.0701 -37.6913
rtoes 25.0448
lfemur -12.3898 -25.5298 -20.9411
ltibia 32.1232
lfoot -24.261 13.5104
ltoes -27.7102
181
root 8.78744 15.1561 42.202 179.806 -10.1457 -178.011
lowerback 7.11818 2.73951 2.73284
upperback -4.86537 3.90355 0.199482
thorax -8.98141 1.69294 -1.88308
lowerneck -7.71917 9.80866 3.79226
upperneck 11.875 12.669 -0.0538203
head 5.07773 6.32183 0.240155
rclavicle 1.78596e-014 5.66536e-015
rhumerus -46.392 15.3934 -97.688
rradius 32.5492
rwrist 21.7312
rhand -8.93974 -55.7552
rfingers 7.12502
rthumb -162.996 454.969
lclavicle 1.78596e-014 5.66536e-015
lhumerus -41.1729 -6.48252 89.8016
lradius 33.2058
lwrist -22.5067
lhand -2.97761 -29.8207
lfingers 7.12502
lthumb 22.7354 -1.14023
rfemur -4.6148 18.6755 29.5436
rtibia 25.2514
rfoot -28.0143 -37.697
rtoes 24.8914
lfemur -12.5391 -25.4184 -20.9089
ltibia 32.1337
lfoot -24.2078 13.5037
ltoes -28.3554
182
root 8.78843 15.1528 42.1948 179.765 -10.6911 -178.052
lowerback 7.00523 2.56114 2.64954
upperback -4.83271 3.6498 0.183398
thorax -8.89489 1.5771 -1.81088
lowerneck -8.12132 8.87304 2.77469
upperneck 12.1933 11.4168 0.709372
head 5.11439 5.70858 0.554121
rclavicle -4.55341e-015 -1.04362e-015
rhumerus -46.2189 15.7723 -97.872
rradius 32.2236
rwrist 22.0646
rhand -9.11227 -55.2661
rfingers 7.12502
rthumb -163.162 455.444
lclavicle -4.55341e-015 -1.04362e-015
lhumerus -41.0055 -6.31553 89.5764
lradius 32.7072
lwrist -22.9883
lhand -3.0418 -29.7072
lfingers 7.12502
lthumb 22.6738 -1.01918
rfemur -4.43409 18.8851 29.6313
rtibia 25.2077
rfoot -28.6902 -38.1081
rtoes 26.2432
lfemur -12.5567 -25.5228 -20.9374
ltibia 32.1628
lfoot -24.1876 13.2665
ltoes -29.174
183
root 8.78665 15.1487 42.1932 179.696 -10.7378 -178.056
lowerback 7.03629 2.53448 2.59572
upperback -4.83847 3.61068 0.201825
thorax -8.92566 1.56123 -1.75781
lowerneck -8.35532 7.93905 1.68807
upperneck 12.4917 10.1811 1.48124
head 5.13493 5.10051 0.87984
rclavicle -1.17401e-013 -1.70458e-014
rhumerus -46.0682 16.0995 -97.9774
rradius 31.7516
rwrist 22.7581
rhand -9.34711 -54.8183
rfingers 7.12502
rthumb -163.388 455.873
lclavicle -1.17401e-013 -1.70458e-014
lhumerus -40.9209 -6.00423 89.3082
lradius 32.5606
lwrist -22.5116
lhand -2.96527 -28.7103
lfingers 7.12502
lthumb 22.7473 -0.0313071
rfemur -4.32426 18.7615 29.6382
rtibia 25.155
rfoot -28.5238 -38.0672
rtoes 26.0686
lfemur -12.4768 -25.6379 -20.9979
ltibia 32.19
lfoot -24.3132 13.3143
ltoes -28.5275
184
root 8.78448 15.1504 42.1914 179.781 -10.6111 -178
lowerback 6.95656 2.56411 2.59709
upperback -4.93294 3.64358 0.196938
thorax -8.97991 1.57246 -1.76658
lowerneck -8.53192 6.97141 0.907348
upperneck 12.9164 8.8974 1.93265
head 5.23839 4.45803 1.06544
rclavicle -2.24751e-014 -2.33572e-015
rhumerus -45.9382 16.2158 -98.0726
rradius 31.3237
rwrist 23.4449
rhand -9.39719 -54.6388
rfingers 7.12502
rthumb -163.436 456.048
lclavicle -2.24751e-014 -2.33572e-015
lhumerus -41.0773 -5.61356 88.9593
lradius 32.3349
lwrist -23.4856
lhand -0.468914 -29.1453
lfingers 7.12502
lthumb 25.1412 -0.780803
rfemur -4.41567 18.6873 29.6305
rtibia 25.1055
rfoot -28.2924 -37.9294
rtoes 25.1182
lfemur -12.5729 -25.6898 -20.9169
ltibia 32.2192
lfoot -24.2913 13.6328
ltoes -29.123
185
root 8.78338 15.1508 42.1868 179.741 -10.5755 -177.927
lowerback 6.9852 2.55077 2.59347
upperback -4.95814 3.62514 0.187883
thorax -9.0248 1.56173 -1.77382
lowerneck -8.79071 5.95727 0.245421
upperneck 13.3173 7.5585 2.21501
head 5.37694 3.78365 1.18125
rclavicle 3.31225e-014 -1.19271e-015
rhumerus -45.6702 16.2406 -98.0964
rradius 30.9389
rwrist 24.1746
rhand -9.27592 -54.6294
rfingers 7.12502
rthumb -163.319 456.067
lclavicle 3.31225e-014 -1.19271e-015
lhumerus -41.1309 -5.36547 88.6277
lradius 32.1878
lwrist -23.7293
lhand 0.95489 -29.3505
lfingers 7.12502
lthumb 26.5047 -1.18435
rfemur -4.34027 18.8599 29.7357
rtibia 25.0916
rfoot -28.635 -37.8947
rtoes 25.564
lfemur -12.513 -25.7771 -20.8771
ltibia 32.2322
lfoot -24.1868 13.9828
ltoes -30.2983
186
root 8.78345 15.1539 42.1834 179.803 -10.5603 -177.919
lowerback 6.93922 2.54082 2.51466
upperback -5.0258 3.59873 0.186555
thorax -9.07733 1.55036 -1.72698
lowerneck -8.85942 4.94902 -0.436271
upperneck 13.6052 6.245 2.40573
head 5.4633 3.11414 1.26429
rclavicle -4.25399e-014 -6.85807e-015
rhumerus -45.4373 16.4673 -98.1541
rradius 30.5576
rwrist 24.8146
rhand -9.2588 -54.7779
rfingers 7.12502
rthumb -163.303 455.92
lclavicle -4.25399e-014 -6.85807e-015
lhumerus -41.2181 -5.13394 88.3643
lradius 32.0791
lwrist -23.5206
lhand 2.06788 -29.2139
lfingers 7.12502
lthumb 27.5695 -1.21309
rfemur -4.38528 18.9056 29.7336
rtibia 25.0827
rfoot -28.7524 -37.857
rtoes 26.359
lfemur -12.5536 -25.9044 -20.8522
ltibia 32.2194
lfoot -24.1471 14.1906
ltoes -30.5853
187
root 8.78265 15.1539 42.1826 179.794 -10.6314 -177.938
lowerback 6.97387 2.51586 2.47397
upperback -5.0793 3.558 0.151565
thorax -9.15819 1.52872 -1.73894
lowerneck -8.86757 3.95329 -1.15666
upperneck 13.9185 4.93883 2.66509
head 5.55613 2.44921 1.37435
rclavicle -5.98839e-015 4.77083e-015
rhumerus -45.3574 16.8142 -98.3656
rradius 30.2278
rwrist 25.113
rhand -9.75436 -54.7607
rfingers 7.12502
rthumb -163.78 455.898
lclavicle -5.98839e-015 4.77083e-015
lhumerus -41.4025 -5.10224 88.2029
lradius 31.7105
lwrist -24.7202
lhand 0.0484305 -28.9649
lfingers 7.12502
lthumb 25.6368 -0.670854
rfemur -4.36693 18.707 29.7192
rtibia 25.0755
rfoot -28.486 -37.8921
rtoes 26.2346
lfemur -12.5331 -25.9856 -20.882
ltibia 32.2202
lfoot -24.0602 14.3349
ltoes -31.5284
188
root 8.7791 15.1559 42.1826 179.924 -10.6792 -177.941
lowerback 6.87707 2.51244 2.47873
upperback -5.15471 3.5444 0.118044
thorax -9.18161 1.51735 -1.772
lowerneck -8.99642 2.95224 -2.02046
upperneck 14.3557 3.6236 3.04402
head 5.71668 1.77971 1.54869
rclavicle 1.98785e-016 4.87022e-015
rhumerus -45.3103 17.0726 -98.5035
rradius 29.9784
rwrist 25.6305
rhand -10.1214 -54.7108
rfingers 7.12502
rthumb -164.133 455.919
lclavicle 1.98785e-016 4.87022e-015
lhumerus -41.5419 -5.10092 88.0421
lradius 31.6198
lwrist -25.2018
lhand -1.70705 -28.5316
lfingers 7.12502
lthumb 23.9543 -0.00595406
rfemur -4.54948 18.5586 29.6434
rtibia 25.095
rfoot -28.1318 -37.9204
rtoes 26.0563
lfemur -12.6884 -26.0741 -20.8281
ltibia 32.2025
lfoot -23.9842 14.3942
ltoes -32.1154
189
root 8.77991 15.1516 42.1794 179.781 -10.8488 -177.917
lowerback 6.96776 2.43845 2.40133
upperback -5.12281 3.44394 0.147588
thorax -9.21099 1.47534 -1.68728
lowerneck -9.10978 2.01735 -2.8906
upperneck 14.7977 2.4048 3.36604
head 5.89129 1.15204 1.71102
rclavicle -1.90088e-015 -1.26228e-014
rhumerus -45.128 17.1862 -98.4687
rradius 29.77
rwrist 26.7418
rhand -10.076 -54.7732
rfingers 7.12502
rthumb -164.09 455.86
lclavicle -1.90088e-015 -1.26228e-014
lhumerus -41.6962 -5.10674 87.9309
lradius 31.851
lwrist -24.8254
lhand 0.483568 -28.1205
lfingers 7.12502
lthumb 26.0535 0.112841
rfemur -4.35002 18.7613 29.799
rtibia 25.1368
rfoot -28.4005 -38.2588
rtoes 26.3213
lfemur -12.5162 -26.1804 -20.8671
ltibia 32.1822
lfoot -24.0728 14.1953
ltoes -30.9528
190
root 8.77835 15.1516 42.1759 179.806 -10.7564 -177.959
lowerback 6.8819 2.44273 2.29269
upperback -5.10795 3.43452 0.145338
thorax -9.15023 1.47922 -1.62298
lowerneck -9.15125 1.16688 -3.7734
upperneck 15.1673 1.29055 3.75109
head 6.04177 0.579409 1.89915
rclavicle 2.72583e-014 3.97569e-015
rhumerus -44.8425 17.2868 -98.4295
rradius 29.5795
rwrist 27.6078
rhand -9.9469 -54.7992
rfingers 7.12502
rthumb -163.965 455.844
lclavicle 2.72583e-014 3.97569e-015
lhumerus -41.8171 -5.05285 87.7709
lradius 31.6878
lwrist -25.434
lhand -1.26025 -28.514
lfingers 7.12502
lthumb 24.3827 -0.045334
rfemur -4.34839 18.8662 29.7574
rtibia 25.1542
rfoot -28.527 -38.2787
rtoes 25.6761
lfemur -12.4745 -26.1972 -20.9373
ltibia 32.1686
lfoot -24.1533 14.2936
ltoes -30.2733
